HIERARCHY
ROOT Pelvis
{
	OFFSET 0.000000 0.000000 0.000000
	CHANNELS 6 Xposition Yposition Zposition Zrotation Yrotation Xrotation 
	JOINT Left_hip
	{
		OFFSET 0.069463 -0.088608 -0.009542
		CHANNELS 3 Zrotation Yrotation Xrotation
		JOINT Left_knee
		{
			OFFSET 0.030639 -0.359740 -0.005288
			CHANNELS 3 Zrotation Yrotation Xrotation
			JOINT Left_ankle
			{
				OFFSET -0.011068 -0.376034 -0.042462
				CHANNELS 3 Zrotation Yrotation Xrotation
				JOINT Left_foot
				{
					OFFSET 0.023192 -0.053321 0.111332
					CHANNELS 3 Zrotation Yrotation Xrotation
					End Site
					{
						OFFSET 0.000000 0.000000 0.000000
					}
				}
			}
		}
	}
	JOINT Right_hip
	{
		OFFSET -0.067438 -0.088025 -0.006263
		CHANNELS 3 Zrotation Yrotation Xrotation
		JOINT Right_knee
		{
			OFFSET -0.035962 -0.366229 -0.008063
			CHANNELS 3 Zrotation Yrotation Xrotation
			JOINT Right_ankle
			{
				OFFSET 0.013608 -0.375719 -0.040481
				CHANNELS 3 Zrotation Yrotation Xrotation
				JOINT Right_foot
				{
					OFFSET -0.021034 -0.045527 0.114617
					CHANNELS 3 Zrotation Yrotation Xrotation
					End Site
					{
						OFFSET 0.000000 0.000000 0.000000
					}
				}
			}
		}
	}
	JOINT Spine1
	{
		OFFSET -0.002610 0.101823 -0.019986
		CHANNELS 3 Zrotation Yrotation Xrotation
		JOINT Spine2
		{
			OFFSET 0.004114 0.128714 -0.000938
			CHANNELS 3 Zrotation Yrotation Xrotation
			JOINT Spine3
			{
				OFFSET 0.002191 0.048470 0.027684
				CHANNELS 3 Zrotation Yrotation Xrotation
				JOINT Neck
				{
					OFFSET -0.002856 0.198873 -0.044022
					CHANNELS 3 Zrotation Yrotation Xrotation
					JOINT Head
					{
						OFFSET 0.002981 0.062960 0.049860
						CHANNELS 3 Zrotation Yrotation Xrotation
						End Site
						{
							OFFSET 0.000000 0.000000 0.000000
						}
					}
				}
				JOINT Left_collar
				{
					OFFSET 0.073708 0.112550 -0.033440
					CHANNELS 3 Zrotation Yrotation Xrotation
					JOINT Left_shoulder
					{
						OFFSET 0.083291 0.030786 -0.008013
						CHANNELS 3 Zrotation Yrotation Xrotation
						JOINT Left_elbow
						{
							OFFSET 0.245601 -0.011792 -0.027873
							CHANNELS 3 Zrotation Yrotation Xrotation
							JOINT Left_wrist
							{
								OFFSET 0.232258 0.008622 -0.000487
								CHANNELS 3 Zrotation Yrotation Xrotation
								JOINT Left_palm
								{
									OFFSET 0.077300 -0.009457 -0.012851
									CHANNELS 3 Zrotation Yrotation Xrotation
									End Site
									{
										OFFSET 0.000000 0.000000 0.000000
									}
								}
							}
						}
					}
				}
				JOINT Right_collar
				{
					OFFSET -0.075339 0.110574 -0.037874
					CHANNELS 3 Zrotation Yrotation Xrotation
					JOINT Right_shoulder
					{
						OFFSET -0.086522 0.031207 -0.009986
						CHANNELS 3 Zrotation Yrotation Xrotation
						JOINT Right_elbow
						{
							OFFSET -0.237313 -0.011478 -0.019859
							CHANNELS 3 Zrotation Yrotation Xrotation
							JOINT Right_wrist
							{
								OFFSET -0.237599 0.007976 -0.003742
								CHANNELS 3 Zrotation Yrotation Xrotation
								JOINT Right_palm
								{
									OFFSET -0.076920 -0.006943 -0.009920
									CHANNELS 3 Zrotation Yrotation Xrotation
									End Site
									{
										OFFSET 0.000000 0.000000 0.000000
									}
								}
							}
						}
					}
				}
			}
		}
	}
}
MOTION
Frames: 14
Frame Time: 0.100000
0.000000 0.000000 0.000000 176.638353 27.965522 -23.636873 1.630323 4.016564 14.327643 0.667317 -12.345474 -2.220609 4.383098 4.598532 -2.162799 -9.192174 9.000864 -2.709199 -1.778748 -4.508701 16.879063 -1.091337 0.730825 -1.907766 -9.056936 -8.452418 -10.383162 14.907607 -5.540398 11.210192 1.231382 0.236925 8.115375 0.652685 -4.852609 7.218315 0.186543 -3.311520 -0.950798 -0.964554 -10.172455 8.884228 -1.819809 -11.557018 -0.889652 -30.618790 -2.538572 7.722945 -50.071314 -6.466183 9.916659 -1.137066 -17.112768 21.059418 -13.935776 3.800428 0.530610 -8.487999 -3.000837 -10.818547 31.500727 6.442054 5.552198 52.199670 3.432063 10.546335 -6.775565 13.775653 -0.179667 8.820474 -3.684117 -1.721396 10.743930 8.338838 -4.481843 
-0.003092 0.001221 0.003597 176.810950 27.843594 -24.746880 1.347736 4.415399 16.318412 1.139597 -12.103914 -3.261019 4.490443 4.519798 -1.150100 -9.475807 9.067613 -2.699853 -2.070652 -5.044313 18.480532 -1.345079 0.504460 -2.587819 -8.248550 -8.230931 -7.217034 14.281740 -4.442235 10.552286 1.233602 0.416268 7.502713 0.430820 -4.466643 7.804006 0.044901 -3.089159 -1.110517 -1.643652 -10.639521 9.207007 -2.398730 -11.527614 -0.560256 -31.271676 -1.897753 7.518525 -49.818723 -6.592189 9.168650 -0.380490 -16.876970 19.370486 -13.873591 3.835131 0.245000 -8.619082 -3.377642 -10.541743 32.207193 6.389798 5.680402 51.596996 3.346569 10.740660 -6.554503 13.180712 -0.832444 8.596731 -3.840697 -0.852373 11.262139 8.555257 -4.425117 
-0.006299 -0.000588 0.008030 176.847683 27.677407 -25.121774 1.416522 4.253003 17.088357 1.159512 -12.054359 -3.388397 4.532768 4.641770 -1.109043 -9.481147 9.033497 -2.746372 -2.184263 -5.249907 19.556784 -1.324918 0.474166 -3.455708 -7.974234 -7.933635 -6.504490 13.940485 -4.399764 10.367422 1.209175 0.689881 6.626859 0.182122 -4.237095 7.834867 -0.134113 -2.832412 -1.169785 -1.818943 -10.890786 9.938026 -2.274407 -11.449208 -0.307685 -31.192892 -1.640465 7.424086 -50.654652 -6.838239 8.866521 0.367664 -16.203824 18.214356 -14.155828 3.840715 -0.735565 -8.377370 -3.318031 -10.120272 31.955647 6.524508 5.799105 52.448808 3.637053 10.832992 -6.372196 12.183163 -0.700563 8.920423 -4.057680 -1.119387 11.142660 8.497060 -4.267024 
-0.007231 -0.000473 0.010415 176.827097 27.401735 -25.279110 1.414811 4.326641 17.329159 1.276235 -11.909508 -3.111596 4.683882 4.843584 -1.447591 -9.510903 9.006582 -2.709264 -2.123663 -5.434091 19.932461 -1.401803 0.683813 -3.633266 -7.916694 -8.005646 -6.482593 13.870771 -4.159588 10.333013 1.262532 0.756030 6.159557 0.202802 -4.161871 7.758636 -0.084291 -2.770416 -1.196531 -1.822711 -10.686753 9.782509 -2.496144 -11.199924 -0.124370 -31.291385 -1.605180 7.338982 -50.467986 -6.571248 8.874893 0.144773 -16.330284 18.656708 -13.874969 3.819215 -0.391681 -8.513779 -3.414755 -10.143652 32.043606 6.701148 5.874716 51.932025 3.716064 11.250874 -6.041641 12.805799 0.398353 8.613872 -3.947555 -0.272044 11.308011 8.585453 -4.330222 
-0.007041 -0.000704 0.011871 176.808516 27.403187 -25.369807 1.504676 4.380125 17.521994 1.285102 -11.961294 -3.159854 4.711461 4.852651 -1.422450 -9.550846 8.945055 -2.695476 -2.087819 -5.421331 19.972262 -1.370138 0.697679 -3.393870 -8.026129 -8.049122 -6.554541 13.989705 -4.214895 10.319081 1.165232 0.686258 5.947515 0.244750 -4.270620 7.738287 -0.058068 -2.852159 -1.197684 -1.747533 -10.427435 9.989036 -2.509872 -10.943416 -0.032451 -31.026611 -1.784070 7.471068 -50.246405 -6.474523 8.998874 -0.170969 -16.244911 19.373104 -13.949234 3.816787 -0.014197 -8.579678 -3.415438 -10.347690 31.894040 6.738565 5.890687 51.962762 3.731755 11.321617 -5.938351 12.915171 0.884223 8.660495 -3.912631 -0.186009 11.337294 8.584894 -4.395876 
-0.005636 -0.000536 0.013084 176.818394 27.494467 -25.304587 1.512899 4.347235 17.141374 1.296009 -12.009431 -2.481099 4.589202 4.972732 -1.734804 -9.372831 8.743949 -2.862995 -1.938042 -5.413180 19.593627 -1.447807 0.690311 -2.671793 -7.943226 -8.086430 -7.049604 13.883617 -4.445638 10.056970 1.090661 0.685986 6.205468 0.281532 -4.189044 7.461473 -0.005116 -2.853252 -1.101672 -1.704517 -10.262525 9.016273 -2.375899 -10.863282 -0.741034 -30.676804 -1.281833 7.276069 -50.280390 -6.058854 9.274405 -0.487283 -18.000766 20.378226 -13.578915 3.453332 0.004915 -8.608213 -3.339558 -10.257631 31.713766 6.161510 5.598344 52.171470 3.102238 11.196062 -6.027738 13.561585 0.821252 8.562280 -3.720964 -0.585761 11.243553 8.514109 -4.416451 
-0.004102 -0.001177 0.020992 176.899322 27.746377 -26.239239 1.669847 4.458153 18.539452 1.477478 -12.550056 -2.372088 4.599931 5.128233 -2.032560 -9.423224 8.732123 -3.048141 -1.961001 -5.426707 20.747293 -1.444616 0.630371 -1.900780 -8.328178 -8.385260 -7.703198 14.320930 -4.525244 9.989426 0.867503 0.692131 5.752711 0.171506 -4.100377 8.035805 -0.169316 -2.842926 -0.772041 -1.872304 -9.966005 10.578827 -2.744042 -10.344104 -0.132121 -30.578724 -0.672263 7.539361 -50.298347 -5.843172 8.917444 -0.213656 -18.583238 19.677060 -13.808515 3.478712 -1.399445 -8.349801 -3.199184 -9.841699 31.727119 5.647412 5.789916 52.406277 2.745308 10.983531 -6.088835 13.581065 0.171311 8.913512 -3.975664 -1.668289 11.078079 8.409511 -4.162512 
-0.002181 -0.002489 0.034434 177.205753 27.290208 -27.181402 2.622581 4.996829 20.853083 1.355681 -13.036895 -3.038523 4.627890 5.083777 -2.217230 -9.676466 8.844395 -3.311372 -2.337018 -6.165803 23.081180 -1.025876 1.373497 -2.827881 -8.795227 -8.603318 -8.020105 15.277587 -3.589955 10.686210 0.483972 0.918993 3.622904 0.088278 -3.721400 8.096282 -0.626759 -2.767975 -0.645190 -2.565691 -8.340510 17.106705 -5.361004 -8.951683 6.091862 -31.173622 0.732308 7.595543 -49.045148 -5.933454 8.214550 -0.829154 -16.300611 18.565188 -14.747368 3.922523 -2.493864 -8.345440 -3.287534 -9.549416 32.985384 4.513186 6.043251 50.692464 3.604761 11.559815 -4.150522 12.447383 0.696632 9.380281 -4.387072 -1.547681 11.562133 8.523143 -3.791424 
0.006299 0.000103 0.027933 176.625865 29.947211 -25.596673 1.626761 3.333018 14.730143 1.236147 -12.942874 3.030967 4.548469 4.698577 -3.512670 -9.488415 8.958511 -3.796085 -1.604387 -6.767506 21.147385 -1.012728 0.105319 -3.519451 -8.186394 -9.188920 -7.737368 13.807608 -3.371694 10.767827 0.765715 1.283451 6.356489 -0.264748 -3.879517 6.330395 -0.394925 -2.679018 -0.932114 -3.014443 -8.033437 12.806759 -4.585973 -8.652991 3.992582 -30.184322 -0.251047 6.851478 -47.769633 -5.774937 8.884510 -1.857567 -22.737720 21.023505 -13.107109 2.880077 -1.250672 -8.631003 -3.383788 -9.077143 31.601890 5.348486 5.398628 50.135327 3.189117 12.231711 -3.839295 19.401550 2.952906 8.414804 -2.986380 -1.062732 11.541706 8.691100 -3.631873 
0.018725 0.009929 0.010767 173.934895 36.079289 -25.078595 0.774996 -2.213760 0.275816 -1.650365 -11.286367 21.883304 4.011379 4.176159 -4.767166 -8.829624 9.043306 -6.985263 0.353258 -7.100759 17.185356 -0.792582 -3.326384 -1.679851 -8.906928 -10.967519 -8.884492 11.626271 -4.271167 10.890213 2.496966 1.926808 12.817567 -0.232714 -4.125173 4.487228 0.412608 -1.984364 -0.422210 -4.374281 -9.148918 5.878324 -1.721663 -8.056987 -0.969364 -26.483821 -2.920071 6.678539 -48.757659 -7.730705 10.843251 -1.479859 -46.907673 24.002122 -8.607433 -1.002993 -7.881440 -6.863416 -2.337605 -4.255559 26.883659 8.593352 5.760510 50.500299 2.481814 12.694408 -5.300438 32.057498 5.433550 6.259985 -1.150389 -3.379347 9.060509 8.000086 -1.903243 
0.024727 0.014108 -0.003366 171.359585 43.459140 -31.623288 0.739218 -1.046431 -2.456582 -2.796402 -6.919537 29.212914 -0.118784 4.853036 -5.528460 -6.128790 12.474260 -9.106721 -1.128473 -10.188094 23.481227 -0.948393 -8.174267 -3.674739 -5.016541 -10.406091 -5.526748 12.749940 -6.493737 3.864116 3.989622 2.082608 22.579915 -0.740386 -3.338431 6.777288 2.104007 -1.390166 -0.130935 -6.003697 -10.069285 2.220640 -0.152717 -5.746037 -7.336358 -24.572338 -4.590916 5.148576 -50.057423 -13.210205 14.272094 30.750923 -83.405408 1.309852 4.523343 -9.651104 -11.798906 1.575951 0.137935 3.572065 23.788216 12.174228 5.402035 49.116522 0.831069 12.863498 -6.497606 39.707748 2.411965 -4.893985 2.554558 -4.355648 3.651084 5.870596 0.784436 
0.018833 0.010898 -0.009672 169.613577 51.272637 -30.925969 1.216760 1.225433 -7.776193 -0.782817 5.176107 23.809920 2.594417 6.793732 -2.653667 -8.554567 15.057579 -10.251533 -2.769323 -12.221951 21.550741 -1.234166 -13.804412 -2.507934 -5.462895 -9.564422 -5.308424 14.493529 -6.996068 2.937382 3.870889 2.103950 23.894163 -1.817589 -2.176992 5.115577 2.304474 -0.904256 -0.202013 -7.428391 -7.571213 1.406571 0.111218 -2.096291 -6.664167 -21.358309 -5.903627 1.959474 -53.222847 -24.722940 15.250780 163.154041 -67.852332 -124.221260 9.061805 -8.779216 -15.284748 5.368097 0.305909 10.554210 23.034558 12.174353 6.054848 53.547552 2.128225 12.075277 -8.329342 31.206419 -0.254949 -4.481326 0.489157 -3.187229 0.841339 4.981188 2.577991 
-0.005150 0.009996 -0.006923 165.838810 58.861334 -33.513622 1.694209 4.352024 -7.617684 -0.883714 13.965415 16.236722 4.784362 8.314655 -1.610880 -11.092117 16.793170 -9.636070 -4.783290 -14.751529 23.511568 -0.939354 -18.507612 -2.462455 -5.642397 -9.753118 -5.626173 16.542937 -5.940665 2.790496 3.516933 2.575401 23.957450 -2.079398 -2.179057 4.486212 2.618982 -0.719526 -0.442715 -8.272456 -4.945372 1.780240 0.686703 -0.454262 -4.957773 -18.191263 -10.490481 -0.947743 -51.141901 -37.181516 13.128735 160.964167 -55.689071 -120.248615 12.885681 -8.013635 -14.552644 8.501627 0.028410 15.775572 23.650411 13.398334 6.906530 56.317455 2.049212 11.563195 -7.531406 21.874878 -0.976992 -4.141776 -0.752542 -1.894631 -1.459114 4.598473 4.282362 
-0.048310 0.015862 -0.001734 157.698181 64.863575 -39.684516 2.095070 6.901295 -7.425186 0.574504 20.365041 14.682783 6.742956 11.291239 -1.594960 -12.189606 16.922507 -9.103911 -5.367229 -16.936061 24.838606 -1.295069 -21.647942 -0.233874 -6.009358 -11.083447 -6.540604 17.934255 -5.597680 2.108023 3.062994 3.085990 22.557855 -1.048479 -2.522132 3.341994 3.408411 -0.759140 -0.155039 -8.471231 -4.430396 2.494827 1.311307 -0.530643 -3.682419 -14.801413 -12.117979 -3.090752 -48.807041 -44.332520 10.744333 161.457860 -51.721681 -119.787854 15.327744 -7.455493 -13.061040 10.297770 -0.375625 18.733239 23.488790 12.483661 6.796185 57.666842 0.476940 11.704595 -7.203562 19.034849 1.632622 -4.356662 -0.981884 0.529521 -3.077632 4.558820 5.267639 
